<svg width="46" height="45" viewBox="0 0 46 45" fill="none" xmlns="http://www.w3.org/2000/svg">
<rect width="46" height="45" rx="2" fill="#F6B93B"/>
<path d="M16.911 28.1737H29.932C31.0742 28.1737 31.6453 28.1737 32.1108 27.9829C32.5212 27.8147 32.8724 27.5437 33.1248 27.2006C33.4111 26.8113 33.5133 26.2919 33.7176 25.2529L35.3418 16.9947C35.4126 16.6346 35.448 16.4545 35.3933 16.314C35.3453 16.1906 35.2517 16.0869 35.129 16.0212C34.9892 15.9463 34.7913 15.9463 34.3954 15.9463H15.1074M11.5 11.5H13.0828C13.3747 11.5 13.5206 11.5 13.6386 11.5493C13.7426 11.5927 13.831 11.6626 13.8937 11.7508C13.9647 11.8509 13.9875 11.9841 14.033 12.2506L17.3838 31.8694C17.4293 32.1359 17.4521 32.2691 17.5231 32.3692C17.5857 32.4574 17.6742 32.5273 17.7782 32.5707C17.8962 32.62 18.0421 32.62 18.3339 32.62H31.9408" stroke="black" stroke-width="2" stroke-linecap="round" stroke-linejoin="round"/>
</svg>
